<svg width="260" height="37" viewBox="0 0 260 37" fill="none" xmlns="http://www.w3.org/2000/svg">
<g clip-path="url(#clip0_2012_697)">
<path d="M107.217 10.184C107.318 9.79276 107.05 9.39032 106.871 9.06613C106.804 8.95434 105.585 7.36693 104.065 5.94721C102.533 4.52748 100.655 3.37605 100.23 3.71142C99.8392 4.0356 101.974 5.69009 103.461 7.76937C104.836 9.69215 105.093 10.4188 105.272 10.743C105.507 11.1678 105.831 11.4472 106.345 11.1342C106.345 11.1342 107.117 10.5753 107.217 10.184ZM104.478 12.6546H102.723C102.511 12.6546 102.343 12.8223 102.343 13.0235V20.614C102.343 20.8264 102.511 20.9941 102.723 20.9941H104.478C104.691 20.9941 104.859 20.8264 104.859 20.614V13.0235C104.859 12.8223 104.691 12.6546 104.478 12.6546ZM88.0677 10.7206C89.2303 10.7206 99.9174 10.117 103.852 9.87102C103.763 9.72569 103.662 9.55801 103.539 9.37914L88.4925 9.25617C90.9295 7.03156 94.5515 3.13011 95.5129 2.02339C95.6582 1.85571 95.7477 1.72156 95.7477 1.6992C95.7924 1.5427 95.5576 1.37502 95.3229 1.36384H93.3442C93.1094 1.36384 93.0312 1.43091 92.8411 1.64331C92.7294 1.77746 88.5261 6.32729 86.7933 9.01024C86.4803 9.49093 86.2008 9.93809 86.458 10.3517C86.771 10.8659 87.4417 10.7094 88.0677 10.7094V10.7206ZM101.527 13.2806V13.0347C101.527 12.9005 101.55 12.7775 101.594 12.6658H88.4255C88.2131 12.6658 88.0454 12.8334 88.0454 13.0347V20.6252C88.0454 20.8376 88.2131 21.0053 88.4255 21.0053H101.594C101.55 20.8823 101.527 20.7593 101.527 20.6363V20.3904H90.5495V13.2806H101.527ZM247.099 7.02038V6.40554H243.053C242.941 6.40554 242.851 6.49497 242.851 6.60676V11.4584C242.851 11.5702 242.941 11.6596 243.053 11.6596H247.099V11.0448H244.785V9.39032H247.099V8.77548H244.785V7.02038H247.099ZM254.779 14.3761C254.958 14.5774 255.137 14.6556 255.35 14.5662C255.35 14.5662 256.076 14.2532 255.964 13.9066C255.908 13.7389 255.685 13.2806 254.835 12.6881C253.896 12.0397 252.778 11.9391 252.722 12.1627C252.689 12.2968 253.047 12.6099 253.483 12.9899L249.849 13.057V11.6596H252.186C252.175 11.5926 252.164 11.5255 252.164 11.4584V11.0448H249.849V9.39032H252.164V8.77548H249.849V7.02038H252.164V6.60676C252.164 6.53969 252.164 6.47262 252.186 6.40554H249.849V5.27647H255.853C255.853 5.27647 255.942 5.23175 255.942 5.18704V4.75106C255.942 4.75106 255.897 4.66163 255.853 4.66163H249.849V3.52137C249.849 3.40958 249.76 3.32015 249.648 3.32015H248.117C248.005 3.32015 247.916 3.40958 247.916 3.52137V4.66163H241.812C241.812 4.66163 241.722 4.70634 241.722 4.75106V5.18704C241.722 5.18704 241.767 5.27647 241.812 5.27647H247.916V13.0906L242.483 13.1912C242.483 13.1912 242.393 13.2359 242.393 13.2806V13.7166C242.393 13.7166 242.438 13.806 242.494 13.806L254.12 13.6048C254.455 13.9513 254.746 14.365 254.768 14.3873L254.779 14.3761ZM246.037 16.5784H244.808C244.595 16.6119 244.439 16.7796 244.45 16.9808C244.45 17.0814 245.143 18.1323 246.105 18.8701C247.2 19.7085 248.586 20.2227 248.698 19.9768C248.787 19.7756 247.994 18.9707 247.39 18.1546C246.999 17.6292 246.719 16.9585 246.697 16.9138C246.529 16.6343 246.261 16.556 246.049 16.5784H246.037ZM252.968 14.4879C252.968 14.3761 252.879 14.2867 252.767 14.2867H251.236C251.124 14.2867 251.034 14.3761 251.034 14.4879V19.9209C251.034 20.0327 251.213 20.491 252.007 20.491C252.801 20.491 252.968 20.0327 252.968 19.9209V16.0418H256.132C256.132 16.0418 256.221 15.9971 256.221 15.9524V15.5164C256.221 15.5164 256.188 15.427 256.132 15.427H252.968V14.4879ZM253.192 6.39436C253.08 6.39436 252.991 6.4838 252.991 6.59558V11.4472C252.991 11.559 253.08 11.6485 253.192 11.6485H254.724C254.835 11.6485 254.925 11.559 254.925 11.4472V6.60676C254.925 6.49497 254.835 6.40554 254.724 6.40554H253.192V6.39436ZM250.218 15.427H241.823C241.823 15.427 241.734 15.4605 241.734 15.5164V15.9524C241.734 15.9524 241.767 16.0418 241.823 16.0418H250.218V15.427ZM256.11 21.5754C256.065 21.4636 256.043 21.3294 256.043 21.2065V20.9605H240.772V2.50409H256.043V2.25815C256.043 2.124 256.065 2.00104 256.11 1.88925H239.162H238.838C238.626 1.88925 238.458 2.05693 238.458 2.26933V21.2065C238.458 21.4189 238.626 21.5866 238.838 21.5866H256.11V21.5754ZM257.239 21.5754H258.793C259.005 21.5754 259.173 21.4077 259.173 21.1953V2.26933C259.173 2.05693 259.005 1.88925 258.793 1.88925H257.239C257.038 1.88925 256.87 2.05693 256.87 2.26933V21.2065C256.87 21.4189 257.038 21.5866 257.239 21.5866V21.5754ZM167.114 20.6475C167.326 20.6475 167.494 20.4798 167.494 20.2674V3.186C167.494 2.98478 167.326 2.80592 167.114 2.80592H165.381C165.169 2.80592 165.001 2.9736 165.001 3.186V20.2898C165.001 20.5022 165.169 20.6699 165.381 20.6699H167.114V20.6475ZM159.054 8.50718V8.09356C159.054 8.02649 159.054 7.95942 159.076 7.89234H152.827C152.716 7.89234 152.626 7.98177 152.626 8.09356V15.2257C152.626 15.3375 152.716 15.427 152.827 15.427H159.076C159.065 15.3599 159.054 15.2928 159.054 15.2257V14.8121H154.56V8.51836H159.054V8.50718ZM164.185 3.16365C164.185 3.0295 164.208 2.90653 164.252 2.79474H147.283C147.07 2.79474 146.903 2.96243 146.903 3.17483V20.2786C146.903 20.491 147.07 20.6587 147.283 20.6587H164.252C164.208 20.5357 164.185 20.4128 164.185 20.2898V20.0439H149.384V3.42076H164.185V3.17483V3.16365ZM160.071 7.89234C159.96 7.89234 159.87 7.98177 159.87 8.09356V15.2257C159.87 15.3375 159.96 15.427 160.071 15.427H161.603C161.715 15.427 161.804 15.3375 161.804 15.2257V8.10474C161.804 7.99295 161.715 7.90352 161.603 7.90352H160.071V7.89234ZM136.517 20.0327C136.953 19.6861 137.032 19.5632 137.255 19.3284C137.479 19.0937 137.479 18.6465 136.998 18.4676C136.741 18.367 134.036 17.3721 131.699 16.1089C130.045 15.2146 128.994 14.4097 128.245 14.0296V14.0072H134.427C134.639 14.0072 134.796 13.8395 134.796 13.6271V6.0031C134.796 5.7907 134.628 5.62302 134.427 5.62302H127.429V3.54373H136.64C136.719 3.54373 136.774 3.48784 136.774 3.40958V3.06304C136.774 2.98478 136.719 2.92889 136.64 2.92889H127.429V0.547773C127.429 0.380089 127.261 0.245941 127.06 0.245941H125.607C125.405 0.245941 125.238 0.380089 125.238 0.547773V21.4524C125.238 21.6425 125.327 22.179 126.333 22.179C127.339 22.179 127.429 21.6425 127.429 21.4524V14.8233C127.641 15.0357 127.932 15.2928 128.256 15.5611C129.273 16.4107 130.738 17.4951 132.28 18.49C134.561 19.9544 134.986 20.0439 135.131 20.1109C135.276 20.178 136.081 20.3904 136.506 20.0439L136.517 20.0327ZM127.429 6.22668H132.325V9.35678H127.429V6.22668ZM127.429 13.4036V9.97163H132.325V13.4036H127.429ZM124.41 13.4036H119.76V9.97163H124.41V9.35678H119.76V6.22668H124.41V5.61184H117.658C117.446 5.61184 117.278 5.77952 117.278 5.99192V13.6495C117.278 13.8619 117.446 14.0296 117.658 14.0296H123.125C122.6 14.6109 121.202 16.0418 119.402 17.2715C116.529 19.2278 115.098 19.3731 115.277 19.9991C115.4 20.4128 118.407 19.3396 121.47 17.5845C122.622 16.9249 123.639 16.1871 124.41 15.5499V13.4147V13.4036ZM115.389 3.53255H124.41V2.91771H115.389C115.322 2.91771 115.255 2.9736 115.255 3.05186V3.3984C115.255 3.46548 115.311 3.53255 115.389 3.53255ZM185.917 10.2287C186.107 10.1952 188.812 9.53565 190.355 9.15556C190.366 9.16674 190.389 9.1891 190.4 9.20028C190.78 9.56918 191.149 10.0834 191.171 10.117C191.35 10.3182 191.529 10.3964 191.741 10.307C191.741 10.307 192.468 9.99398 192.356 9.64744C192.3 9.47975 192.077 9.02142 191.227 8.42893C190.288 7.78055 189.17 7.67994 189.114 7.90352C189.081 8.02649 189.427 8.32832 189.841 8.69723L186.476 9.35678V7.37811H189.528C189.517 7.31104 189.506 7.24396 189.506 7.17689V6.76327H186.476V5.22057H189.506V4.60573H186.476V2.99596H189.506V2.58234C189.506 2.51527 189.506 2.44819 189.528 2.38112H189.159C189.092 2.25815 189.014 2.124 188.947 2.02339C188.488 1.2744 188.388 1.12908 188.332 1.07318C188.186 0.927857 188.03 0.883141 187.784 0.939036C187.504 1.00611 187.124 1.08436 187.001 1.24087C186.878 1.38619 186.845 1.56506 187.001 1.74392C187.091 1.84453 187.393 2.14636 187.627 2.3923H185C185 2.3923 184.967 2.42584 184.956 2.43702C184.9 2.47055 184.866 2.52645 184.866 2.59352V9.80394C184.866 9.80394 184.844 10.0722 185.034 10.2287C185.202 10.3629 185.615 10.2846 185.884 10.2287H185.917ZM193.821 10.9442C194.48 10.9442 194.592 10.5865 194.592 10.4747V8.70841C194.827 8.96552 195.106 9.23382 195.442 9.4015C198.136 10.7542 199.544 8.25007 198.818 6.56205C198.471 5.76834 197.51 5.32118 197.007 5.18704C197.666 4.43805 198.482 3.23072 198.84 2.73885C198.963 2.57116 199.008 2.49291 199.019 2.35876C199.019 2.22461 198.84 2.13518 198.695 2.09047C198.538 2.04575 198.113 1.98986 197.856 1.98986H193.262C193.15 1.98986 193.06 2.07929 193.06 2.19108V10.4747C193.06 10.5865 193.172 10.9442 193.832 10.9442H193.821ZM194.592 2.61588H197.118C196.794 3.4543 196.168 5.28765 196.28 5.41062C196.392 5.53358 197.04 5.90249 197.353 6.34965C197.811 6.99803 197.901 8.41775 196.895 8.74194C195.978 9.0326 195.129 8.5519 194.603 8.11592V2.62706L194.592 2.61588ZM180.328 3.64434C181.703 2.48173 182.139 1.79982 182.194 1.65449C182.25 1.50916 182.105 1.34148 181.937 1.31912L181.099 1.07318C180.931 1.05083 180.842 1.09554 180.685 1.29676C180.663 1.3303 180.082 2.29169 179.444 3.06304C178.55 4.13622 177.466 5.16468 177.522 5.32118C177.589 5.50005 179.12 4.66163 180.339 3.64434H180.328ZM180.417 5.01935C179.724 5.74598 178.818 6.58441 178.64 6.75209C178.293 7.08746 177.991 7.35575 178.181 7.71348C178.427 8.19417 179.064 7.93706 179.5 7.84763C179.903 7.76937 181.278 7.44518 182.217 7.21043C181.893 7.69112 181.524 8.183 181.132 8.57426C179.366 10.3741 177.824 10.7318 178.002 11.0336C178.215 11.4249 180.574 10.4747 182.172 9.16674C183.894 7.75819 184.799 5.71245 184.799 5.71245C184.799 5.52241 184.643 5.35472 184.441 5.35472L183.648 5.29883C183.447 5.29883 183.346 5.35472 183.189 5.63419C183.167 5.67891 182.932 6.10371 182.597 6.6403L179.836 6.95331C180.227 6.70737 180.808 6.26022 181.501 5.74598C183.279 4.42687 183.782 3.6667 183.827 3.47666C183.871 3.27544 183.704 3.04068 183.502 3.00714L182.642 2.82828C182.44 2.79474 182.373 2.85064 182.15 3.09657C181.926 3.34251 181.267 4.13622 180.428 5.01935H180.417ZM190.545 7.40047H191.685C191.797 7.40047 191.887 7.31104 191.887 7.19925V2.6047C191.887 2.49291 191.797 2.40348 191.685 2.40348H190.545C190.433 2.40348 190.344 2.49291 190.344 2.6047V7.19925C190.344 7.31104 190.433 7.40047 190.545 7.40047ZM195.419 21.5866C195.632 21.5866 195.799 21.4189 195.799 21.2065V16.3436C195.799 16.1312 195.632 15.9635 195.419 15.9635H193.686C193.474 15.9635 193.306 16.1312 193.306 16.3436V21.2065C193.306 21.4189 193.474 21.5866 193.686 21.5866H195.419ZM191.943 14.1078C192.177 13.9513 192.412 13.7725 192.624 13.5712C193.183 13.0682 193.597 12.4198 193.765 12.1068H196.749C196.749 12.1068 196.839 12.0621 196.839 12.0174V11.5814C196.839 11.5814 196.794 11.492 196.749 11.492H189.651C189.651 11.492 189.64 11.4249 189.606 11.3802C189.125 10.6535 189.047 10.4859 188.991 10.43C188.846 10.2846 188.678 10.2399 188.444 10.2958C188.153 10.3629 187.784 10.4411 187.661 10.5976C187.538 10.743 187.504 10.9218 187.661 11.1007C187.739 11.179 187.862 11.3355 187.996 11.492H179.992C179.992 11.492 179.903 11.5367 179.903 11.5814V12.0174C179.903 12.0174 179.948 12.1068 179.992 12.1068H182.977C183.145 12.431 183.558 13.0682 184.117 13.5712C184.33 13.7725 184.564 13.9513 184.799 14.1078H177.701C177.701 14.1078 177.611 14.1526 177.611 14.1973V14.6332C177.611 14.6332 177.656 14.7227 177.701 14.7227H199.041C199.041 14.7227 199.131 14.678 199.131 14.6332V14.1973C199.131 14.1973 199.086 14.1078 199.041 14.1078H191.943ZM190.825 14.1078H185.917C185.727 13.8172 185.448 13.4483 185.224 13.0794C185 12.7105 184.844 12.2857 184.777 12.1068H191.965C191.898 12.2857 191.741 12.7216 191.518 13.0794C191.283 13.4483 191.015 13.8172 190.825 14.1078ZM192.49 21.2176V20.9717H183.435V19.1495H192.49V18.5347H183.435V16.5896H192.49V16.3436C192.49 16.2095 192.513 16.0865 192.557 15.9747H181.334C181.132 15.9747 180.965 16.1424 180.965 16.3548V21.2176C180.965 21.43 181.132 21.5977 181.334 21.5977H192.557C192.513 21.4859 192.49 21.3518 192.49 21.2288V21.2176ZM208.152 14.5326V14.991C208.152 14.991 208.197 15.0804 208.241 15.0804H216.67V14.4432H208.241C208.241 14.4432 208.152 14.4879 208.152 14.5326ZM219.756 14.4432V13.18C219.756 12.9676 219.588 12.7999 219.376 12.7999H217.878C217.665 12.7999 217.498 12.9676 217.498 13.18V21.0611C217.498 21.2735 217.632 21.9219 218.627 21.9219C219.622 21.9219 219.756 21.2735 219.756 21.0611V15.0804H229.202C229.202 15.0804 229.291 15.0357 229.291 14.991V14.5326C229.291 14.5326 229.247 14.4432 229.202 14.4432H219.756ZM215.698 12.2968H219.61C219.566 12.1739 219.543 12.0509 219.543 11.9279V11.6708H216.983V8.26125H219.543V7.62405H216.983V4.00207H219.543V3.74495C219.543 3.6108 219.566 3.48784 219.61 3.37605H218.85C219.085 3.07422 219.499 2.5488 219.61 2.3923C219.767 2.16872 219.711 1.94514 219.577 1.74392C219.432 1.53152 219.029 1.39737 218.716 1.28558C218.448 1.18497 218.28 1.22969 218.146 1.40855C218.09 1.47563 217.989 1.66567 217.576 2.59352C217.464 2.83946 217.319 3.21954 217.252 3.37605H215.698C215.485 3.37605 215.318 3.54373 215.318 3.75613V11.9279C215.318 12.1403 215.485 12.308 215.698 12.308V12.2968ZM220.74 12.2968H221.656C221.869 12.2968 222.025 12.1292 222.025 11.9168V3.74495C222.025 3.53255 221.857 3.36487 221.656 3.36487H220.74C220.527 3.36487 220.359 3.53255 220.359 3.74495V11.9168C220.359 12.1292 220.527 12.2968 220.74 12.2968ZM228.386 18.9148C227.95 18.5794 226.866 17.864 224.999 17.0479C223.143 16.2207 221.287 15.7735 221.008 16.2207C220.751 16.6455 222.618 17.3609 224.73 18.68C226.731 19.9768 227.302 20.6587 227.738 21.05C228.106 21.3853 228.509 21.4971 228.878 21.05C228.878 21.05 229.224 20.3904 229.213 20.0215C229.202 19.6526 228.811 19.2502 228.364 18.9148H228.386ZM216.626 16.4331C216.67 16.243 216.492 16.0083 216.29 15.9971C216.089 15.9971 215.284 15.9971 214.915 15.9971C214.558 15.9971 214.435 16.1089 214.211 16.3324C214.122 16.4219 213.06 17.7298 211.405 18.7136C209.471 19.865 207.694 20.2674 207.805 20.614C207.962 21.0835 210.254 20.6028 212.758 19.4067C215.184 18.2441 216.57 16.6343 216.614 16.4442L216.626 16.4331ZM208.689 12.6881C208.901 12.621 211.483 11.8273 212.97 11.369C213.004 11.8273 213.015 12.1292 213.015 12.1739C213.037 12.4534 213.138 12.621 213.384 12.6769C213.384 12.6769 214.401 12.8782 214.513 12.5316C214.569 12.3639 214.558 11.8609 214.312 10.8324C214.021 9.6139 213.417 8.57426 212.87 9.09967C212.702 9.26735 212.791 9.83748 212.881 10.5976L209.415 11.3578C210.075 10.743 211.047 9.90455 211.919 8.99906C214.122 6.74091 214.815 5.41062 214.904 5.16468C214.994 4.91874 214.77 4.59455 214.502 4.54984L213.484 4.34862C213.216 4.3039 213.082 4.40451 212.836 4.80695C212.791 4.87403 211.562 6.98685 210.477 8.46247C209.415 9.91573 208.443 11.056 208.197 11.3131C207.962 11.5702 207.459 12.0509 207.56 12.2633C207.671 12.4757 208.13 12.8446 208.666 12.6881H208.689ZM225.323 5.3659C226.899 3.46548 227.357 2.41466 227.402 2.20226C227.447 1.98986 227.246 1.76628 227.033 1.7551L225.96 1.5427C225.748 1.5427 225.636 1.60977 225.468 1.94514C225.446 2.00104 224.842 3.47666 224.138 4.68398C223.154 6.372 222.327 7.51226 222.416 7.71348C222.528 7.95942 223.925 7.03156 225.323 5.35472V5.3659ZM210.723 5.3659C212.299 3.46548 212.758 2.41466 212.802 2.20226C212.847 1.98986 212.646 1.76628 212.434 1.7551L211.36 1.5427C211.148 1.5427 211.036 1.60977 210.88 1.94514C210.857 2.00104 210.254 3.47666 209.549 4.68398C208.566 6.372 207.738 7.51226 207.828 7.71348C207.94 7.95942 209.337 7.03156 210.734 5.35472L210.723 5.3659ZM227.458 9.4015C227.313 9.59154 227.492 10.184 227.704 10.9554L224.093 11.3578C224.764 10.743 225.725 9.90455 226.597 8.99906C228.8 6.74091 229.168 5.81306 229.258 5.56712C229.347 5.32118 229.124 4.99699 228.855 4.95228L227.838 4.75106C227.57 4.70634 227.436 4.80695 227.19 5.20939C227.145 5.27647 226.24 6.98685 225.155 8.46247C224.082 9.91573 223.121 11.056 222.875 11.3131C222.64 11.5702 222.137 12.0509 222.249 12.2633C222.36 12.4757 222.819 12.8446 223.355 12.6881C223.59 12.621 226.43 11.8944 227.849 11.5255C227.972 12.0397 228.028 12.3863 228.039 12.4198C228.106 12.6881 228.229 12.8446 228.475 12.867C228.475 12.867 229.515 12.9229 229.571 12.554C229.604 12.3751 229.526 11.8832 229.135 10.8995C228.677 9.72569 227.928 8.78666 227.469 9.39032L227.458 9.4015ZM210.555 30.6639C211.17 30.6639 211.729 30.798 212.098 30.9769L212.322 30.2726C212.065 30.1496 211.461 29.9372 210.511 29.9372C208.141 29.9372 206.71 31.5023 206.71 33.3915C206.71 35.5267 208.253 36.7452 210.298 36.7452C211.226 36.7452 211.953 36.5552 212.299 36.3875L212.109 35.6944C211.696 35.8844 211.081 36.0074 210.477 36.0074C208.622 36.0074 207.638 34.856 207.638 33.3803C207.638 31.7482 208.722 30.6639 210.544 30.6639H210.555ZM86.6704 30.7868H88.9397V36.6222H89.8228V30.7868H92.1033V30.0602H86.6704V30.7868ZM220.058 32.7879H216.436V30.0602H215.552V36.6334H216.436V33.548H220.058V36.6334H220.941V30.0602H220.058V32.7879ZM225.558 33.5592H228.408V32.8326H225.558V30.7757H228.576V30.049H224.674V36.6222H228.732V35.8956H225.558V33.5592ZM192.613 29.9372C190.657 29.9372 189.204 31.3681 189.204 33.4139C189.204 35.3255 190.579 36.734 192.535 36.734C194.491 36.734 195.967 35.4485 195.967 33.2574C195.967 31.357 194.637 29.9261 192.624 29.9261L192.613 29.9372ZM192.569 36.0409C191.059 36.0409 190.132 34.8113 190.132 33.3915C190.132 31.9718 190.981 30.6415 192.591 30.6415C194.201 30.6415 195.028 31.9718 195.028 33.3133C195.028 34.8783 194.089 36.0409 192.58 36.0409H192.569ZM249.995 33.4921V33.4698C250.688 33.2574 251.292 32.6761 251.292 31.8041C251.292 31.2899 251.079 30.8427 250.755 30.5633C250.319 30.1832 249.693 29.9931 248.709 29.9931C248.061 29.9931 247.368 30.0602 246.898 30.1385V36.6222H247.781V33.7828H248.754C249.57 33.8163 249.95 34.1741 250.151 35.0684C250.353 35.8956 250.498 36.4322 250.61 36.6222H251.526C251.381 36.3428 251.213 35.6944 250.979 34.7665C250.811 34.1405 250.498 33.671 249.984 33.481L249.995 33.4921ZM248.832 33.1232H247.781V30.7645C247.938 30.7198 248.273 30.675 248.765 30.675C249.693 30.675 250.408 31.0104 250.408 31.8935C250.408 32.6425 249.805 33.1232 248.832 33.1232ZM234.188 32.8885C233.182 32.5643 232.768 32.2513 232.768 31.6588C232.768 31.2116 233.126 30.6639 234.11 30.6639C234.78 30.6639 235.283 30.8763 235.507 31.0104L235.764 30.295C235.44 30.1161 234.892 29.9484 234.143 29.9484C232.79 29.9484 231.885 30.7198 231.885 31.7482C231.885 32.6873 232.533 33.235 233.785 33.6263C234.791 33.9393 235.149 34.297 235.149 34.9007C235.149 35.5714 234.601 36.0186 233.674 36.0186C233.003 36.0186 232.399 35.8062 231.963 35.5379L231.717 36.2645C232.12 36.5328 232.891 36.7452 233.584 36.7452C235.306 36.7452 236.032 35.795 236.032 34.8336C236.032 33.794 235.406 33.2797 234.177 32.8773L234.188 32.8885ZM257.462 30.0602H256.378L253.896 36.6334H254.824L255.584 34.5318H258.2L258.994 36.6334H259.955L257.451 30.0602H257.462ZM255.786 33.8499L256.534 31.8712C256.669 31.4799 256.78 31.1334 256.881 30.7868H256.903C257.004 31.1222 257.105 31.4687 257.272 31.8824L258.021 33.8499H255.786ZM177.097 29.9372C175.141 29.9372 173.687 31.3681 173.687 33.4139C173.687 35.3255 175.062 36.734 177.019 36.734C178.975 36.734 180.451 35.4485 180.451 33.2574C180.451 31.357 179.12 29.9261 177.097 29.9261V29.9372ZM177.052 36.0409C175.543 36.0409 174.615 34.8113 174.615 33.3915C174.615 31.9718 175.465 30.6415 177.075 30.6415C178.684 30.6415 179.512 31.9718 179.512 33.3133C179.512 34.8783 178.573 36.0409 177.063 36.0409H177.052ZM238.592 30.7868H240.862V36.6222H241.745V30.7868H244.025V30.0602H238.592V30.7868ZM202.305 33.4921V33.4698C202.999 33.2574 203.602 32.6761 203.602 31.8041C203.602 31.2899 203.39 30.8427 203.066 30.5633C202.63 30.1832 202.004 29.9931 201.02 29.9931C200.371 29.9931 199.667 30.0602 199.209 30.1385V36.6222H200.092V33.7828H201.065C201.881 33.8163 202.261 34.1741 202.462 35.0684C202.663 35.8956 202.82 36.4322 202.92 36.6222H203.837C203.692 36.3428 203.524 35.6944 203.289 34.7665C203.121 34.1405 202.808 33.671 202.294 33.481L202.305 33.4921ZM201.143 33.1232H200.092V30.7645C200.248 30.7198 200.584 30.675 201.076 30.675C202.004 30.675 202.719 31.0104 202.719 31.8935C202.719 32.6425 202.115 33.1232 201.143 33.1232ZM102.712 36.6334H103.595V30.0602H102.712V36.6334ZM106.67 30.798H108.939V36.6334H109.822V30.798H112.102V30.0714H106.67V30.798ZM169.763 32.799H166.142V30.0714H165.258V36.6446H166.142V33.5592H169.763V36.6446H170.647V30.0714H169.763V32.799ZM96.0271 30.0714L93.5454 36.6446H94.4733L95.2334 34.543H97.8493L98.643 36.6446H99.6044L97.1003 30.0714H96.016H96.0271ZM95.4347 33.861L96.1837 31.8824C96.329 31.4911 96.4296 31.1446 96.5302 30.798H96.5526C96.6532 31.1334 96.7538 31.4799 96.9215 31.8935L97.6705 33.861H95.4347ZM119.436 33.794C119.436 35.3367 118.72 36.0521 117.614 36.0521C116.596 36.0521 115.87 35.359 115.87 33.794V30.0714H114.987V33.7716C114.987 35.9515 116.127 36.7564 117.58 36.7564C119.156 36.7564 120.341 35.8733 120.341 33.7493V30.0714H119.447V33.794H119.436ZM128.681 32.9555C128.681 33.9281 128.681 34.7218 128.77 35.5491H128.748C128.413 34.9007 128.01 34.2635 127.462 33.4698L125.059 30.0714H124.053V36.6446H124.891V33.6598C124.891 32.6761 124.891 31.9047 124.835 31.0887H124.869C125.227 31.7482 125.718 32.5084 126.244 33.2686L128.614 36.6558H129.53V30.0826H128.692V32.9667L128.681 32.9555ZM160.261 30.675C160.876 30.675 161.435 30.8092 161.804 30.9881L162.028 30.2838C161.771 30.1608 161.167 29.9484 160.217 29.9484C157.847 29.9484 156.416 31.5135 156.416 33.4027C156.416 35.5379 157.959 36.7564 160.004 36.7564C160.932 36.7564 161.67 36.5663 162.005 36.3987L161.815 35.7056C161.413 35.8956 160.787 36.0186 160.183 36.0186C158.327 36.0186 157.344 34.8671 157.344 33.3915C157.344 31.7594 158.428 30.675 160.25 30.675H160.261ZM150.402 33.5704H153.252V32.8438H150.402V30.7868H153.42V30.0602H149.518V36.6334H153.576V35.9068H150.402V33.5704ZM136.428 33.8834H137.915V35.7726C137.68 35.8956 137.222 35.985 136.562 35.985C134.773 35.985 133.7 34.8895 133.7 33.3468C133.7 31.8041 134.796 30.7309 136.651 30.7309C137.423 30.7309 137.926 30.8651 138.339 31.0551L138.563 30.3509C138.25 30.2055 137.557 30.0155 136.685 30.0155C134.136 30.0155 132.772 31.6364 132.772 33.4027C132.772 34.3641 133.13 35.2249 133.723 35.7838C134.427 36.4434 135.344 36.734 136.484 36.734C137.523 36.734 138.373 36.4769 138.787 36.3316V33.2127H136.417V33.9058L136.428 33.8834Z" fill="#2D3D8C"/>
<path d="M61.1041 15.8406H67.8898V13.5824H63.3623C57.7281 13.5824 53.6813 9.70334 49.7799 7.40048C49.1091 7.02039 48.3378 6.79681 47.5105 6.79681C46.6833 6.79681 45.912 7.02039 45.2524 7.40048C41.3621 9.70334 37.3042 13.5824 31.67 13.5824H9.05496H6.79681V29.423H9.05496H20.3681C26.0022 29.423 30.049 25.5439 33.9505 23.241C34.6212 22.8498 35.3926 22.6374 36.2086 22.6374C37.0247 22.6374 37.8072 22.861 38.478 23.241C42.3682 25.5439 46.4262 29.423 52.0604 29.423H54.3185H67.901V27.1649H54.3185C48.6843 27.1649 44.6376 23.2858 40.7361 20.9829C40.0654 20.5916 39.294 20.3792 38.4668 20.3792C37.6395 20.3792 36.8682 20.6028 36.2086 20.9829C32.3184 23.2858 28.2604 27.1649 22.6262 27.1649H9.05496V22.6374H24.8955C30.5297 22.6374 34.5765 18.7583 38.478 16.4554C39.1375 16.0642 39.92 15.8518 40.7361 15.8518C41.5522 15.8518 42.3347 16.0753 43.0054 16.4554C46.8957 18.7583 50.9537 22.6374 56.5879 22.6374H67.901V20.3792H58.846C53.2118 20.3792 49.165 16.5001 45.2636 14.1973C44.5928 13.8172 43.8215 13.5936 42.9942 13.5936C42.167 13.5936 41.3957 13.8172 40.7361 14.1973C36.8458 16.5001 32.7879 20.3792 27.1537 20.3792H9.05496V15.8518H29.423C35.0572 15.8518 39.104 11.9727 43.0054 9.6698C43.6762 9.27854 44.4475 9.06614 45.2748 9.06614C46.102 9.06614 46.8733 9.28972 47.5441 9.6698C51.4344 11.9727 55.4923 15.8518 61.1265 15.8518L61.1041 15.8406Z" fill="#2D3D8C"/>
<path d="M49.791 33.9393C44.1568 33.9393 40.1101 30.0602 36.2086 27.7573C35.5379 27.3772 34.7665 27.1537 33.9393 27.1537C33.112 27.1537 32.3407 27.3772 31.6811 27.7573C27.7909 30.0602 23.7329 33.9393 18.0987 33.9393H2.25815V9.05494H33.9505C39.5847 9.05494 43.6314 5.17584 47.5329 2.87298C48.1924 2.48172 48.975 2.26932 49.791 2.26932C50.6071 2.26932 51.3896 2.4929 52.0604 2.87298C55.9506 5.17584 60.0086 9.05494 65.6428 9.05494H67.9121V6.79679C62.2779 6.79679 58.2311 2.9177 54.3297 0.614833C53.659 0.234748 52.8876 0.0111694 52.0604 0.0111694C51.2331 0.0111694 50.4618 0.234748 49.791 0.614833C45.9008 2.9177 41.8428 6.79679 36.2086 6.79679H2.25815H0V36.2086H2.25815H15.8406C21.4748 36.2086 25.5215 32.3295 29.423 30.0266C30.0937 29.6354 30.8651 29.423 31.6923 29.423C32.5196 29.423 33.2909 29.6466 33.9616 30.0266C37.8519 32.3295 41.9099 36.2086 47.5441 36.2086H49.8022H67.9121V33.9505H49.8022L49.791 33.9393Z" fill="#2D3D8C"/>
</g>
<defs>
<clipPath id="clip0_2012_697">
<rect width="260" height="36.7452" fill="white"/>
</clipPath>
</defs>
</svg>
